<svg width="20" height="20" viewBox="0 0 15 15" fill="none" xmlns="http://www.w3.org/2000/svg">
<path d="M7.50002 10.5V6.5M4.00002 4L7.49502 6.5L11 4M2.49902 0.5C3.02946 0.5 3.53816 0.710714 3.91324 1.08579C4.28831 1.46086 4.49902 1.96957 4.49902 2.5C4.49902 3.03043 4.28831 3.53914 3.91324 3.91421C3.53816 4.28929 3.02946 4.5 2.49902 4.5C1.96859 4.5 1.45988 4.28929 1.08481 3.91421C0.709737 3.53914 0.499023 3.03043 0.499023 2.5C0.499023 1.96957 0.709737 1.46086 1.08481 1.08579C1.45988 0.710714 1.96859 0.5 2.49902 0.5ZM12.492 0.5C13.0225 0.5 13.5312 0.710714 13.9062 1.08579C14.2813 1.46086 14.492 1.96957 14.492 2.5C14.492 3.03043 14.2813 3.53914 13.9062 3.91421C13.5312 4.28929 13.0225 4.5 12.492 4.5C11.9616 4.5 11.4529 4.28929 11.0778 3.91421C10.7027 3.53914 10.492 3.03043 10.492 2.5C10.492 1.96957 10.7027 1.46086 11.0778 1.08579C11.4529 0.710714 11.9616 0.5 12.492 0.5ZM7.49502 10.5C8.02546 10.5 8.53417 10.7107 8.90924 11.0858C9.28431 11.4609 9.49502 11.9696 9.49502 12.5C9.49502 13.0304 9.28431 13.5391 8.90924 13.9142C8.53417 14.2893 8.02546 14.5 7.49502 14.5C6.96459 14.5 6.45588 14.2893 6.08081 13.9142C5.70574 13.5391 5.49502 13.0304 5.49502 12.5C5.49502 11.9696 5.70574 11.4609 6.08081 11.0858C6.45588 10.7107 6.96459 10.5 7.49502 10.5Z" stroke="black" stroke-linecap="square"/>
</svg>
